<svg width="16" height="44" viewBox="0 0 16 44" fill="none" xmlns="http://www.w3.org/2000/svg">
<path fill-rule="evenodd" clip-rule="evenodd" d="M0 20.5832C0 7.50243 5.42166 0.445137 7.63885 0.44458C9.85635 0.445137 15.2777 7.50198 15.2777 20.5832C15.2777 33.8001 10.5346 42.7602 10.3333 43.1352L10.1371 43.4998H5.14063L4.94444 43.1352C4.74311 42.7601 0 33.8001 0 20.5832ZM6.94467 2.28839V2.28831L6.9448 2.28827L6.94467 2.28839ZM6.94467 2.28839V24.0559H8.33356V2.28831C10.1113 3.87511 13.8891 9.64787 13.8891 20.5834C13.8891 24.2327 13.5054 27.5625 12.9585 30.4705C12.1547 29.3264 10.6773 27.7692 7.98476 26.2309C1.43809 22.4896 1.51764 17.3523 1.52298 17.1354H1.52124C2.20353 8.41873 5.3648 3.70008 6.94467 2.28839ZM1.5248 24.2244C1.46577 23.4015 1.43105 22.5578 1.41195 21.6984C2.40505 23.5438 4.16716 25.6496 7.29533 27.4376C11.7407 29.9786 12.5018 32.492 12.5209 32.5553L12.5211 32.5559C12.1808 34.042 11.8076 35.3909 11.4343 36.5784C10.8492 35.542 9.818 34.2677 7.9968 33.1826C2.51236 29.917 1.64613 25.1791 1.5248 24.2244ZM8.33347 42.1114H9.29356L9.29338 42.1111C9.56942 41.5416 10.1284 40.3229 10.7639 38.5694C10.6284 37.9913 9.97916 35.9792 7.28471 34.375C4.83516 32.9151 3.22404 31.1772 2.15982 29.5488C3.29698 36.2105 5.35951 40.8232 5.98449 42.1114H6.94458V37.2501H8.33347V42.1114Z" fill="#4AF6CD"/>
</svg>
