<svg width="121" height="22" viewBox="0 0 121 22" fill="none" xmlns="http://www.w3.org/2000/svg">
<path d="M10.9545 0L14.1496 7.5896L22 8.4542L16.066 13.9302L17.801 22L10.9545 17.7728L4.19896 22L5.93402 13.9302L0 8.4542L7.85043 7.5896L10.9545 0Z" fill="#4AF6CD"/>
<path d="M43.9545 0L47.1496 7.5896L55 8.4542L49.066 13.9302L50.801 22L43.9545 17.7728L37.199 22L38.934 13.9302L33 8.4542L40.8504 7.5896L43.9545 0Z" fill="#4AF6CD"/>
<path d="M76.9545 0L80.1496 7.5896L88 8.4542L82.066 13.9302L83.801 22L76.9545 17.7728L70.199 22L71.934 13.9302L66 8.4542L73.8504 7.5896L76.9545 0Z" fill="#4AF6CD"/>
<path d="M109.955 0L113.15 7.5896L121 8.4542L115.066 13.9302L116.801 22L109.954 17.7728L103.199 22L104.934 13.9302L99 8.4542L106.85 7.5896L109.955 0Z" fill="#4AF6CD"/>
</svg>
