<svg width="222" height="39" viewBox="0 0 222 39" fill="none" xmlns="http://www.w3.org/2000/svg">
<path d="M210.109 0L200.137 29.4454C198.826 33.3167 196.696 37.0502 194.123 37.4469V38.3517H205.214C208.159 38.3517 210.307 34.4401 211.76 30.1318L222 0H210.11H210.109Z" fill="#FF0000"/>
<path d="M26.467 38.3516V3.23461H31.4873V38.3516H26.467ZM142.252 38.3516L130.188 17.4989V38.3516H125.949V3.23461H129.55L141.453 23.7595V3.23461H145.692V38.3516H142.252ZM168.486 14.5634C166.217 12.2834 163.662 10.438 160.274 10.438C156.229 10.438 153.212 14.7083 153.212 20.6458C153.212 26.7283 156.283 31.0389 160.238 31.0389C163.503 31.0389 166.091 29.336 168.645 26.3292V35.0194C166.392 37.2994 163.396 38.9999 160.025 38.9999C153.143 38.9999 147.73 31.8345 147.73 20.6458C147.73 9.64002 153.248 2.5791 160.006 2.5791C163.2 2.5791 166.091 3.80936 168.486 5.80437V14.5634ZM59.4265 38.3516V3.23461H76.2074V10.7634H64.4467V19.4892H75.9428V27.0204H64.4467V38.3539H59.4265V38.3516ZM171.521 38.3516V3.23461H188.94V10.7634H176.54V16.8482H188.745V24.377H176.54V30.8228H188.887V38.3516H171.521ZM93.6454 25.1726L100.581 38.3539H95.2239C94.0353 38.3539 93.2555 37.5939 92.634 36.3589L87.915 27.018C87.8601 26.9186 87.7958 26.8421 87.7261 26.7928C87.6563 26.7435 87.5824 26.7223 87.5086 26.7306H84.2973V38.3516H79.277V3.23461H90.1516C95.7922 3.23461 98.1694 8.41214 98.1694 14.1312C98.1694 20.7931 95.2593 23.9732 93.6454 25.1726ZM89.6377 19.38C91.6226 19.38 92.5808 17.3184 92.5808 15.0004C92.5808 12.6824 91.7301 10.7634 89.6377 10.7634H84.2973V19.38H89.6377ZM50.5557 25.175L57.4911 38.3516H52.1353C50.9467 38.3516 50.1658 37.5916 49.5455 36.3589L44.8265 27.018C44.7714 26.9185 44.7069 26.8418 44.637 26.7925C44.567 26.7432 44.4929 26.7222 44.4189 26.7306H41.2087V38.3516H36.1873V3.23461H47.0619C52.7025 3.23461 55.0809 8.41214 55.0809 14.1312C55.0809 20.7931 52.1708 23.9756 50.5557 25.175ZM46.548 19.38C48.5353 19.38 49.4935 17.3184 49.4935 15.0004C49.4935 12.6824 48.6416 10.7634 46.548 10.7634H41.2087V19.38H46.548ZM18.6076 38.3516L16.4088 30.6399H6.79487L4.78985 38.3516H0L9.57969 3.27023H13.9442L24.8011 38.3516H18.6076ZM8.7101 23.3249H14.3164L11.4063 12.6088L8.7101 23.3249ZM118.853 38.3516L116.706 30.6399H107.343L105.408 38.3516H100.742L110.072 3.27023H114.311L124.867 38.3516H118.853ZM109.221 23.3249H114.685L111.847 12.6088L109.221 23.3249Z" fill="#051039"/>
</svg>
